<?xml version="1.0" encoding="UTF-8"?>
<svg id="Layer_1" xmlns="http://www.w3.org/2000/svg" version="1.1" viewBox="0 0 128 128">
  <!-- Generator: Adobe Illustrator 29.4.0, SVG Export Plug-In . SVG Version: 2.1.0 Build 152)  -->
  <path d="M0,0v128h128V0H0ZM104,76.115c0,1.151-.574,2.226-1.531,2.865l-36.554,24.439c-.58.388-1.248.581-1.916.581s-1.336-.194-1.915-.581l-36.554-24.439c-.957-.639-1.531-1.714-1.531-2.865v-24.23c0-1.151.574-2.226,1.531-2.865l36.554-24.439c1.159-.775,2.672-.775,3.831,0l36.554,24.439c.956.64,1.531,1.714,1.531,2.865v24.23ZM45.723,68.135l14.83,9.83v16.138l-26.888-17.976,12.057-7.992ZM39.485,64l-8.592,5.696v-11.391l8.592,5.695ZM45.723,59.865l-12.057-7.992,26.888-17.976v16.138l-14.83,9.83ZM76.039,64l-12.039,7.98-12.039-7.98,12.039-7.98,12.039,7.98ZM82.277,68.135l12.057,7.992-26.888,17.976v-16.138l14.83-9.83ZM82.277,59.865l-14.83-9.83v-16.138l26.888,17.976-12.057,7.992ZM88.515,64l8.592-5.695v11.391l-8.592-5.696Z"/>
</svg>