<?xml version="1.0" encoding="UTF-8"?>
<svg id="Layer_1" xmlns="http://www.w3.org/2000/svg" version="1.1" viewBox="0 0 128 128">
  <!-- Generator: Adobe Illustrator 29.4.0, SVG Export Plug-In . SVG Version: 2.1.0 Build 152)  -->
  <path d="M57.903,67.072c.006,4.492-3.171,8.181-7.192,8.181-3.951,0-7.192-3.689-7.192-8.181s3.171-8.188,7.192-8.188,7.261,3.689,7.192,8.188ZM77.289,58.884c-4.021,0-7.192,3.695-7.192,8.188s3.241,8.181,7.192,8.181c4.021,0,7.192-3.689,7.192-8.181.069-4.499-3.171-8.188-7.192-8.188ZM128,0v128H0V0h128ZM91.768,38.223c-5.179-2.423-10.716-4.184-16.505-5.186-.711,1.285-1.542,3.014-2.114,4.39-6.154-.925-12.251-.925-18.292,0-.573-1.375-1.422-3.104-2.139-4.39-5.795,1.003-11.339,2.77-16.517,5.199-10.445,15.784-13.277,31.176-11.861,46.349,6.928,5.173,13.642,8.316,20.242,10.373,1.63-2.243,3.083-4.627,4.335-7.14-2.385-.906-4.669-2.024-6.827-3.323.573-.424,1.133-.868,1.674-1.324,13.163,6.157,27.466,6.157,40.472,0,.547.456,1.107.9,1.674,1.324-2.165,1.305-4.455,2.423-6.84,3.329,1.252,2.506,2.699,4.897,4.335,7.14,6.607-2.057,13.327-5.199,20.255-10.379,1.661-17.59-2.838-32.841-11.892-46.362Z"/>
</svg>