<?xml version="1.0" encoding="UTF-8"?>
<svg id="Layer_1" xmlns="http://www.w3.org/2000/svg" version="1.1" viewBox="0 0 128 128">
  <!-- Generator: Adobe Illustrator 29.4.0, SVG Export Plug-In . SVG Version: 2.1.0 Build 152)  -->
  <defs>
    <style>
      .st0 {
        fill-rule: evenodd;
      }
    </style>
  </defs>
  <path class="st0" d="M0,0v128h128V0H0ZM88.592,88.82c-1.007,1.658-3.166,2.177-4.814,1.166-13.196-8.064-29.806-9.885-49.365-5.418-1.883.431-3.76-.749-4.191-2.632-.431-1.887.745-3.765,2.632-4.196,21.405-4.893,39.766-2.786,54.577,6.266,1.653,1.007,2.173,3.166,1.161,4.814ZM95.471,73.521c-1.274,2.06-3.966,2.707-6.027,1.442-15.102-9.281-38.127-11.974-55.996-6.551-2.313.702-4.762-.604-5.465-2.917-.698-2.318.609-4.758,2.922-5.465,20.407-6.191,45.778-3.194,63.123,7.469,2.06,1.264,2.707,3.966,1.442,6.022ZM103.263,55.75c-1.48,2.496-4.706,3.32-7.202,1.836-18.113-10.756-47.989-11.744-65.282-6.495-2.777.843-5.713-.726-6.551-3.503-.843-2.777.721-5.713,3.503-6.556,19.85-6.027,52.845-4.861,73.697,7.516,2.496,1.484,3.315,4.706,1.836,7.202Z"/>
</svg>