<?xml version="1.0" encoding="UTF-8"?>
<svg id="Layer_1" xmlns="http://www.w3.org/2000/svg" version="1.1" viewBox="0 0 128 128">
  <!-- Generator: Adobe Illustrator 29.4.0, SVG Export Plug-In . SVG Version: 2.1.0 Build 152)  -->
  <path d="M97.09,30.909c-9.171-9.17-24.039-9.17-33.21,0-4.391,4.391-6.674,10.088-6.86,15.841l-.005-.013-17.489,23.021c-2.601.25-5.15,1.107-7.44,2.543L0,57.339v20.569l24.216,11.292c.497,3.565,2.096,7.006,4.837,9.747,6.695,6.695,17.55,6.695,24.246,0,2.928-2.928,4.575-6.651,4.942-10.474l23.021-17.489-.013-.005c5.753-.186,11.45-2.469,15.841-6.86,9.17-9.171,9.17-24.039,0-33.209ZM50.533,96.181c-5.168,5.168-13.546,5.168-18.714,0-1.424-1.424-2.441-3.095-3.08-4.872l8.497,3.962h0c4.665,2.175,10.211.157,12.387-4.509,2.176-4.665.157-10.211-4.508-12.387l-8.499-3.963c4.689-1.719,10.152-.71,13.916,3.054,5.168,5.168,5.168,13.546,0,18.714ZM128,128H0V0h128v128ZM92.608,35.391c-6.695-6.695-17.55-6.695-24.246,0-6.695,6.695-6.695,17.55,0,24.246,6.695,6.695,17.55,6.695,24.246,0s6.695-17.55,0-24.246ZM89.842,56.871c-5.168,5.168-13.546,5.168-18.714,0-5.168-5.168-5.168-13.546,0-18.714s13.546-5.168,18.714,0c5.168,5.168,5.168,13.546,0,18.714Z"/>
</svg>